# xmcd
#
# Track frame offsets:
#	150
#	15250
#	34522
#	55605
#	72580
#	90682
#	105987
#	117840
#	135650
#	151987
#	164190
#	182555
#	196125
#	216970
#
# Disc length: 3131 seconds
#
# Revision: 1
# Processed by: cddbd v1.5.2PL0 Copyright (c) Steve Scherf et al.
# Submitted via: dBpowerAMP V4.0
#
DISCID=b50c390e
DTITLE=Grant and Forsyth - Let's Dance
DYEAR=1900
DGENRE=Country
TTITLE0=Let's work together
TTITLE1=We dance the night away
TTITLE2=Bad moon rising-/ Proud Mary
TTITLE3=When i'm dead and gone
TTITLE4=I do
TTITLE5=You never can tell
TTITLE6=Come on over to my place
TTITLE7=How can i wait
TTITLE8=On a mission
TTITLE9=Let's dance
TTITLE10=Take me home country roads
TTITLE11=I'm still standing
TTITLE12=Bye bye love-/ Hello Mary Lou
TTITLE13=I hear you knocking
EXTD=
EXTT0=
EXTT1=
EXTT2=
EXTT3=
EXTT4=
EXTT5=
EXTT6=
EXTT7=
EXTT8=
EXTT9=
EXTT10=
EXTT11=
EXTT12=
EXTT13=
PLAYORDER=
